<svg width="24" height="24" viewBox="0 0 24 24" fill="none" xmlns="http://www.w3.org/2000/svg">
<path fill-rule="evenodd" clip-rule="evenodd" d="M8.06443 13.3931C9.02366 6.43121 11.5213 3 11.5213 3C11.5213 3 17.8721 7.85874 21 15.0705C20.8304 14.8569 20.5653 14.4504 20.2241 13.927C17.7311 10.1036 11.1724 0.0447574 8.06443 13.3931ZM13.7414 15.3945C7.22146 18.0391 3 17.6018 3 17.6018C3 17.6018 4.038 9.67964 8.7275 3.3679C8.62704 3.62142 8.4071 4.05405 8.12388 4.61099C6.05517 8.67906 0.612957 19.3812 13.7414 15.3945ZM19.9138 17.6711C19.9138 17.6711 18.1923 13.8003 12.6386 9.47837C22.6591 18.8378 10.6639 19.487 6.09961 19.7341C5.4736 19.768 4.98743 19.7943 4.71692 19.8345C12.5343 20.7345 19.9138 17.6711 19.9138 17.6711Z" fill="#ED0000"/>
</svg>
