<svg width="24" height="24" viewBox="0 0 24 24" fill="none" xmlns="http://www.w3.org/2000/svg">
<path d="M20 4H4V20H20V4Z" fill="#FF4F00"/>
<path d="M6.26635 12.7925L6.26407 12.7853L7.70299 11.468V10.8332H5.39448V11.468H6.77336L6.77563 11.474L5.35077 12.7925V13.4272H7.72618V12.7925H6.26635Z" fill="#FFFDF9"/>
<path d="M9.14302 10.773C8.87672 10.773 8.65971 10.8131 8.49197 10.8935C8.33572 10.9635 8.20409 11.0788 8.11419 11.2245C8.02817 11.3712 7.97415 11.5344 7.9557 11.7034L8.65616 11.8018C8.68149 11.6526 8.73217 11.5468 8.80818 11.4845C8.8946 11.4193 9.00105 11.3863 9.10918 11.3914C9.25135 11.3914 9.35445 11.4294 9.41857 11.5054C9.48205 11.5814 9.51433 11.6867 9.51433 11.8254V11.8946H8.84085C8.49803 11.8946 8.25177 11.9706 8.10202 12.1226C7.95227 12.2746 7.87753 12.4753 7.87778 12.7246C7.87778 12.98 7.95253 13.1701 8.10202 13.2947C8.25153 13.4194 8.4395 13.4813 8.66605 13.4806C8.94703 13.4806 9.16317 13.3839 9.31443 13.1906C9.40377 13.0718 9.46757 12.9358 9.5018 12.7911H9.52726L9.62382 13.4258H10.2585V11.8185C10.2585 11.4864 10.171 11.2291 9.99589 11.0466C9.8208 10.8642 9.53652 10.773 9.14302 10.773ZM9.36498 12.7543C9.26424 12.8383 9.13237 12.8801 8.96818 12.8801C8.83287 12.8801 8.73887 12.8564 8.68616 12.809C8.6605 12.7866 8.64008 12.7588 8.62635 12.7276C8.61262 12.6964 8.60592 12.6626 8.60676 12.6285C8.60524 12.5963 8.61031 12.5642 8.6216 12.5341C8.63289 12.504 8.65021 12.4765 8.67252 12.4533C8.69657 12.4307 8.72498 12.4132 8.75603 12.4019C8.78707 12.3906 8.82007 12.3857 8.85302 12.3875H9.51549V12.4312C9.5168 12.493 9.50396 12.5543 9.47786 12.6103C9.45177 12.6663 9.41314 12.7155 9.36498 12.7543Z" fill="#FFFDF9"/>
<path d="M14.0953 10.8332H13.3454V13.4276H14.0953V10.8332Z" fill="#FFFDF9"/>
<path d="M18.5255 10.8332C18.3137 10.8332 18.1468 10.908 18.0246 11.0575C17.937 11.1649 17.8703 11.3237 17.8247 11.5337H17.8027L17.7046 10.8332H17.0642V13.4272H17.8141V12.097C17.8141 11.9292 17.8533 11.8007 17.9319 11.7112C18.0104 11.6217 18.1554 11.5771 18.3667 11.5771H18.6513V10.8332H18.5255Z" fill="#FFFDF9"/>
<path d="M16.3175 10.9179C16.1424 10.8137 15.9216 10.7618 15.6551 10.7621C15.2355 10.7621 14.9071 10.8815 14.6699 11.1204C14.4328 11.3594 14.3142 11.6888 14.3142 12.1086C14.3082 12.3625 14.3636 12.614 14.4757 12.8418C14.5784 13.0447 14.7383 13.2132 14.9356 13.3264C15.1343 13.4411 15.3705 13.4987 15.6444 13.4989C15.8814 13.4989 16.0792 13.4624 16.2381 13.3894C16.3875 13.3239 16.5175 13.2212 16.6159 13.0911C16.7095 12.9634 16.7791 12.8196 16.8211 12.6669L16.175 12.486C16.1478 12.5853 16.0955 12.6759 16.023 12.749C15.95 12.822 15.8277 12.8585 15.6562 12.8585C15.4522 12.8585 15.3002 12.8001 15.2001 12.6833C15.1275 12.5989 15.0819 12.4784 15.0618 12.3222H16.831C16.8382 12.2493 16.842 12.1881 16.842 12.1387V11.9771C16.8463 11.7601 16.8015 11.545 16.7109 11.3477C16.6261 11.168 16.489 11.0182 16.3175 10.9179ZM15.6334 11.3804C15.9375 11.3804 16.1099 11.53 16.1507 11.8293H15.0751C15.0922 11.7294 15.1335 11.6353 15.1956 11.5552C15.2941 11.4384 15.4401 11.3802 15.6334 11.3804Z" fill="#FFFDF9"/>
<path d="M13.7293 9.78777C13.6728 9.78582 13.6166 9.79528 13.5639 9.81551C13.5112 9.83578 13.4631 9.86638 13.4225 9.9056C13.3824 9.94514 13.351 9.99262 13.3303 10.045C13.3096 10.0973 13.2999 10.1534 13.302 10.2097C13.3 10.2663 13.3097 10.3228 13.3304 10.3755C13.3512 10.4282 13.3826 10.4761 13.4227 10.5162C13.4628 10.5562 13.5107 10.5876 13.5634 10.6083C13.6162 10.629 13.6726 10.6386 13.7293 10.6365C13.7855 10.6386 13.8416 10.629 13.894 10.6083C13.9464 10.5875 13.9938 10.5561 14.0333 10.516C14.0726 10.4755 14.1032 10.4275 14.1234 10.3749C14.1435 10.3222 14.1529 10.266 14.1508 10.2097C14.1534 10.1537 14.1443 10.0977 14.124 10.0454C14.1038 9.99314 14.0729 9.94562 14.0332 9.90596C13.9936 9.8663 13.9461 9.83534 13.8938 9.81507C13.8416 9.79476 13.7853 9.78522 13.7293 9.78777Z" fill="#FFFDF9"/>
<path d="M12.1801 10.7621C11.9247 10.7621 11.7195 10.8423 11.5644 11.0026C11.4496 11.1215 11.3653 11.2988 11.3116 11.5347H11.2877L11.1896 10.8343H10.5492V14.1728H11.2991V12.7977H11.3264C11.3493 12.8894 11.3814 12.9785 11.4222 13.0637C11.4857 13.2026 11.5897 13.3189 11.7206 13.3974C11.8563 13.4715 12.0092 13.5083 12.1637 13.5042C12.4777 13.5042 12.7167 13.3819 12.8809 13.1375C13.0451 12.893 13.1272 12.5518 13.1272 12.114C13.1272 11.6911 13.0478 11.36 12.8889 11.1208C12.7301 10.8816 12.4938 10.7621 12.1801 10.7621ZM12.2561 12.6418C12.1687 12.7685 12.0319 12.8319 11.8456 12.8319C11.7689 12.8354 11.6923 12.8206 11.6224 12.7887C11.5525 12.7568 11.4911 12.7087 11.4435 12.6483C11.3465 12.5264 11.2981 12.3596 11.2984 12.1478V12.0984C11.2984 11.8833 11.3467 11.7185 11.4435 11.6043C11.5403 11.49 11.6743 11.4335 11.8456 11.4348C12.0351 11.4348 12.1728 11.4949 12.2588 11.6153C12.3447 11.7357 12.3876 11.9035 12.3876 12.1189C12.3881 12.3416 12.3445 12.5159 12.2569 12.6418H12.2561Z" fill="#FFFDF9"/>
</svg>
